<?xml version="1.0" encoding="UTF-8" standalone="no"?>
<!-- Created with Inkscape (http://www.inkscape.org/) -->

<svg
   xmlns:dc="http://purl.org/dc/elements/1.1/"
   xmlns:cc="http://creativecommons.org/ns#"
   xmlns:rdf="http://www.w3.org/1999/02/22-rdf-syntax-ns#"
   xmlns:svg="http://www.w3.org/2000/svg"
   xmlns="http://www.w3.org/2000/svg"
   xmlns:sodipodi="http://sodipodi.sourceforge.net/DTD/sodipodi-0.dtd"
   xmlns:inkscape="http://www.inkscape.org/namespaces/inkscape"
   width="320.40036"
   height="86.794624"
   viewBox="0 0 84.772592 22.964412"
   version="1.1"
   id="svg8"
   inkscape:version="0.92.2 5c3e80d, 2017-08-06"
   sodipodi:docname="signature_white.svg"
   inkscape:export-filename="/Users/Florent/signature_white.png"
   inkscape:export-xdpi="299.74207"
   inkscape:export-ydpi="299.74207">
  <defs
     id="defs2" />
  <sodipodi:namedview
     id="base"
     pagecolor="#ffffff"
     bordercolor="#666666"
     borderopacity="1.0"
     inkscape:pageopacity="0.0"
     inkscape:pageshadow="2"
     inkscape:zoom="1.979899"
     inkscape:cx="77.041561"
     inkscape:cy="19.247824"
     inkscape:document-units="mm"
     inkscape:current-layer="layer1"
     showgrid="false"
     fit-margin-top="10"
     fit-margin-left="10"
     fit-margin-right="10"
     fit-margin-bottom="10"
     units="px"
     inkscape:window-width="2560"
     inkscape:window-height="1343"
     inkscape:window-x="0"
     inkscape:window-y="1"
     inkscape:window-maximized="1" />
  <metadata
     id="metadata5">
    <rdf:RDF>
      <cc:Work
         rdf:about="">
        <dc:format>image/svg+xml</dc:format>
        <dc:type
           rdf:resource="http://purl.org/dc/dcmitype/StillImage" />
        <dc:title></dc:title>
      </cc:Work>
    </rdf:RDF>
  </metadata>
  <g
     inkscape:label="Calque 1"
     inkscape:groupmode="layer"
     id="layer1"
     transform="translate(32.388186,216.60342)">
    <path
       style="fill:#ffffff;stroke-width:1"
       d="m 49.062919,-196.50449 c -0.04425,-0.13941 -0.0149,-0.35842 0.06522,-0.4867 0.213971,-0.34263 -0.02462,-1.08838 -0.662296,-2.07014 -0.848646,-1.30657 -3.533373,-3.87045 -4.409048,-4.2106 -0.28869,-0.11213 -1.539243,-0.22863 -1.539243,-0.14339 0,0.017 0.122348,0.49548 0.271882,1.06337 0.218363,0.82926 0.23938,1.0526 0.106768,1.13456 -0.363653,0.22475 -0.49492,-0.0281 -1.088809,-2.09695 -0.404254,-1.40827 -0.159021,-3.31969 0.519902,-4.05226 0.76275,-0.82302 2.50567,0.0416 2.851367,1.41449 0.183223,0.72764 0.07176,1.26912 -0.35473,1.72325 l -0.333844,0.35549 0.358856,0.27951 c 3.550069,2.76519 5.006158,4.75487 4.882395,6.67156 -0.03207,0.49672 -0.0829,0.59932 -0.31313,0.63211 -0.184418,0.0263 -0.301308,-0.0442 -0.355287,-0.2143 z m -4.682866,-8.17432 c 0.422222,-0.3794 0.474858,-0.80844 0.161409,-1.31561 -0.274839,-0.4447 -1.06245,-0.94278 -1.479104,-0.93538 -0.525364,0.009 -0.88586,0.54729 -0.93831,1.4002 -0.04176,0.67904 0.05569,0.87922 0.432746,0.88893 0.15304,0.004 0.47828,0.0788 0.722755,0.16632 0.507857,0.18184 0.713033,0.14372 1.100504,-0.20446 z m -26.932414,4.2536 c -1.111855,-0.38686 -1.567088,-0.80539 -1.410986,-1.29723 0.08865,-0.27931 0.0897,-0.2794 0.362652,-0.0301 0.721149,0.6586 2.354591,1.10474 3.659717,0.99956 1.360374,-0.10964 2.341995,-0.74193 3.230909,-2.08113 0.366261,-0.5518 0.453101,-0.80479 0.460678,-1.3421 0.02302,-1.63217 -1.464442,-3.97372 -3.26756,-5.14378 -1.360925,-0.88312 -1.839297,-1.05648 -3.070433,-1.11271 -1.487797,-0.068 -2.379859,0.41943 -2.929365,1.60052 -0.192611,0.41399 -0.393064,0.7533 -0.445451,0.75403 -0.136117,0.002 -0.116344,-0.74314 0.0341,-1.28475 0.168101,-0.60519 0.66428,-1.09133 1.514532,-1.48389 0.939812,-0.43391 2.408213,-0.44967 3.466032,-0.0372 1.945827,0.75873 3.699841,2.4565 4.707511,4.55654 0.460211,0.9591 0.505599,1.14464 0.497643,2.03423 -0.0064,0.71968 -0.08266,1.14431 -0.287864,1.60363 -0.35231,0.7886 -1.28349,1.72647 -2.168356,2.18394 -0.598047,0.30918 -0.849807,0.35805 -2.016848,0.39143 -1.184649,0.0339 -1.445503,-7.6e-4 -2.33691,-0.31099 z m -15.0688453,-2.00083 c -0.180163,-0.73756 -0.334269,-1.14517 -0.396119,-1.04775 -0.05568,0.0877 -0.102111,0.2623 -0.10318,0.38801 -0.01043,1.22574 -1.89122098,1.85512 -2.87056298,0.96059 -0.26117502,-0.23856 -0.27021702,-0.23815 -0.60764402,0.0273 -0.18839,0.14819 -0.570648,0.30003 -0.849464,0.33742 -0.464898,0.0624 -0.547244,0.0256 -0.992993,-0.44295 l -0.486057,-0.51095 -0.287723,0.34832 c -0.961245,1.16372 -2.286513,1.05127 -2.943673,-0.24976 -0.0882,-0.17462 -0.243688,-0.41813 -0.345518,-0.54111 -0.289315,-0.34943 0.163068,-2.04052 0.657051,-2.45618 0.564584,-0.47506 1.060432,-0.35661 1.405879,0.33585 0.357293,0.71621 0.05449,1.75675 -0.649022,2.2303 l -0.411284,0.27685 0.311566,0.20415 c 0.409495,0.26831 0.648657,0.25752 1.149239,-0.0519 0.441415,-0.27281 0.821159,-0.92867 0.864548,-1.49316 0.05629,-0.73237 0.719714,-0.26696 0.719714,0.5049 0,0.33462 0.583999,1.11726 0.833686,1.11726 0.225001,0 0.629272,-0.21925 1.112337,-0.60325 0.464778,-0.36947 0.69712202,-0.36151 0.79468202,0.0272 0.08386,0.33412 0.406995,0.49209 0.973656,0.47598 0.79249998,-0.0225 1.04739798,-0.26 1.25261598,-1.16694 0.13271,-0.5865 0.02542,-0.97906 -0.29012,-1.06158 -0.198707,-0.052 -0.23536798,-0.1313 -0.16692,-0.36125 0.04824,-0.16206 0.167664,-0.35811 0.265387,-0.43566 0.203727,-0.16168 0.23403,-1.41446 0.05648,-2.33501 -0.06057,-0.31406 -0.0682,-0.59981 -0.01696,-0.635 0.05125,-0.0352 0.130078,-0.164 0.175179,-0.28624 0.0451,-0.12224 0.139854,-0.22225 0.210566,-0.22225 0.153047,0 0.225647,0.27519 0.3853,1.4605 0.06586,0.48895 0.146051,1.0033 0.178206,1.143 0.03216,0.1397 0.06284,0.35677 0.06818,0.48237 0.0088,0.2062 0.139768,0.22629 1.349108,0.20698 0.736665,-0.0118 1.376427,0.0156 1.421694,0.0609 0.04527,0.0453 -0.04386,0.20847 -0.198052,0.36266 -0.225119,0.22512 -0.479895,0.29502 -1.293163,0.35477 -0.557045,0.0409 -1.036436,0.0989 -1.065312,0.12887 -0.04838,0.0502 0.206354,1.24426 0.571076,2.67695 0.173513,0.68159 0.0955,0.997 -0.246584,0.997 -0.198983,0 -0.292253,-0.21014 -0.535807,-1.2072 z m -8.411032,-1.70279 c 0.191981,-0.25005 0.208284,-0.7299 0.02857,-0.84097 -0.07382,-0.0456 -0.266715,-0.0497 -0.428657,-0.009 -0.341448,0.0857 -0.649213,0.97313 -0.417756,1.20458 0.150418,0.15042 0.569689,-0.0314 0.817843,-0.35456 z m 37.8281833,2.37913 c -0.249917,-0.29197 -0.454396,-0.60191 -0.454396,-0.68875 0,-0.0868 -0.147064,-0.33267 -0.326807,-0.54629 -0.189642,-0.22538 -0.299769,-0.48265 -0.262388,-0.61299 0.03543,-0.12354 0.0986,-0.51036 0.140374,-0.85961 0.127753,-1.06801 0.218036,-1.4605 0.335955,-1.4605 0.06208,0 0.112866,-0.0758 0.112866,-0.16836 0,-0.25241 0.524517,-0.6799 0.9206,-0.75031 0.43338,-0.077 0.715024,0.12229 0.759729,0.53767 0.03089,0.287 -0.0053,0.3137 -0.376505,0.2779 -0.593866,-0.0572 -0.99535,0.38833 -1.111621,1.23372 -0.0502,0.365 -0.07112,0.68051 -0.04649,0.70114 0.02463,0.0206 0.387685,-0.003 0.806785,-0.0521 0.505999,-0.0595 0.793307,-0.0428 0.855185,0.0496 0.208669,0.31182 -0.01361,0.48018 -0.945995,0.7165 l -0.59881,0.15178 0.325689,0.58798 c 0.17913,0.3234 0.412662,0.68587 0.518963,0.80551 0.195276,0.21977 0.145695,0.60798 -0.07765,0.60798 -0.0666,0 -0.325569,-0.23889 -0.575487,-0.53086 z m -4.568082,0.018 c -0.686489,-0.60274 -1.005467,-1.49732 -1.067555,-2.99397 -0.03602,-0.86832 -0.0026,-1.37901 0.103044,-1.57649 l 0.156326,-0.2921 0.223417,0.29619 c 0.173853,0.23049 0.197956,0.383 0.108651,0.68749 -0.252163,0.85975 0.205285,2.86214 0.732828,3.2078 0.292364,0.19156 0.328232,0.18666 0.616611,-0.0843 0.421265,-0.39576 0.491509,-0.84767 0.304629,-1.95985 -0.168463,-1.00258 -0.06583,-1.84894 0.236204,-1.94783 0.24383,-0.0798 0.410781,0.5219 0.497567,1.79332 0.09258,1.35632 0.414123,2.20043 0.883031,2.31811 0.166614,0.0418 0.302058,0.14128 0.300988,0.22102 -0.0082,0.61219 -0.819546,0.57279 -1.055094,-0.0513 -0.185114,-0.49042 -0.356112,-0.47385 -0.644964,0.0625 -0.135582,0.25176 -0.391645,0.49213 -0.602604,0.56567 -0.320793,0.11183 -0.420341,0.0809 -0.793079,-0.24637 z m 7.950674,0.20062 c -0.910193,-0.50249 -1.351923,-1.31798 -1.254343,-2.31568 0.04051,-0.41423 0.0135,-0.67648 -0.07263,-0.70519 -0.260036,-0.0867 0.02433,-0.69638 0.490701,-1.0521 1.715676,-1.30861 3.823164,1.29811 2.760441,3.41434 -0.110319,0.21968 -0.322997,0.49816 -0.472618,0.61885 -0.313914,0.2532 -1.029453,0.27281 -1.451551,0.0398 z m 1.439596,-0.96276 c 0.308387,-0.25594 0.375609,-1.253 0.116871,-1.73345 -0.301993,-0.56077 -0.951112,-0.95642 -1.484868,-0.90505 -0.345945,0.0333 -0.418183,0.0943 -0.428522,0.36156 -0.0069,0.17683 -0.07828,0.44453 -0.15875,0.5949 -0.516237,0.9646 0.393941,2.22322 1.399234,1.93491 0.211238,-0.0606 0.461453,-0.17437 0.556035,-0.25287 z m -54.618792,0.88967 c -0.139685,-0.22602 -0.310247,-2.55172 -0.265125,-3.61512 0.02371,-0.5588 0.05169,-1.73037 0.06217,-2.6035 0.01048,-0.87312 0.07371,-1.67322 0.140499,-1.778 0.19154,-0.30046 0.575752,0.0147 0.561543,0.46059 -0.0064,0.2007 -0.04986,1.43611 -0.09658,2.74535 -0.05075,1.42207 -0.03179,2.84978 0.0471,3.5462 0.104524,0.9227 0.09818,1.18726 -0.03042,1.26887 -0.218266,0.1385 -0.322251,0.13245 -0.419188,-0.0244 z m -5.870646,-0.14128 c -0.08565,-0.0856 -0.108565,-0.59116 -0.0637,-1.40537 l 0.07007,-1.27161 -0.432007,0.0873 c -0.237603,0.048 -0.527209,0.11394 -0.643568,0.14649 -0.314656,0.088 -0.408695,-0.17532 -0.184689,-0.5172 0.171392,-0.26157 0.845811,-0.54544 1.126501,-0.47414 0.05239,0.0133 0.101766,-0.53302 0.10973,-1.21406 0.01778,-1.52039 0.0632,-1.93823 0.228673,-2.1037 0.267049,-0.26705 0.417034,0.57242 0.330479,1.8497 l -0.08391,1.23825 h 0.570252 c 0.765934,0 0.972026,0.0971 0.972026,0.45809 0,0.32639 -0.02345,0.33575 -0.888999,0.35482 l -0.5715,0.0126 -8.51e-4,0.8255 c -4.7e-4,0.45403 0.03301,0.99695 0.07441,1.2065 0.04139,0.20955 0.05108,0.4531 0.02153,0.54121 -0.08515,0.25391 -0.480602,0.41948 -0.634446,0.26564 z m 7.940039,-0.18963 c -0.260325,-0.16483 -0.557474,-0.42829 -0.660332,-0.58545 -0.380295,-0.58109 -0.365728,-1.96613 0.02204,-2.09539 0.08332,-0.0278 0.178149,0.157 0.223885,0.43623 0.181848,1.11021 0.21117,1.17575 0.646338,1.44469 1.673162,1.03408 4.252991,-0.51796 2.838865,-1.70787 -0.392509,-0.33027 -1.454181,-0.71292 -1.978033,-0.71292 -0.375816,0 -0.523118,-0.25205 -0.259821,-0.44457 0.114361,-0.0836 0.170717,-0.18926 0.125236,-0.23474 -0.131231,-0.13123 0.683143,-0.096 1.285074,0.0555 0.997293,0.25112 1.849566,1.22103 1.849566,2.10485 0,0.36415 -0.459929,1.30811 -0.74881,1.53686 -0.796084,0.63037 -2.505028,0.734 -3.344007,0.20278 z m 56.226315,0.21237 c -0.544697,-0.12497 -0.856576,-0.34922 -1.187266,-0.85369 -0.791384,-1.20727 -0.976697,-1.74778 -0.778213,-2.26984 0.123414,-0.3246 0.1431,-0.33161 0.365582,-0.13027 0.144434,0.13071 0.257973,0.45037 0.294316,0.82861 0.05938,0.61794 0.367154,1.14965 0.868891,1.50108 0.350295,0.24535 0.992774,0.0881 1.131568,-0.27694 0.110505,-0.29065 -0.164213,-2.08772 -0.381099,-2.49298 -0.06139,-0.1147 -0.06938,-0.36646 -0.01776,-0.55947 0.08244,-0.30824 0.113902,-0.32677 0.258683,-0.15232 0.09066,0.10924 0.182524,0.32993 0.20415,0.49043 0.02163,0.16049 0.124072,0.5217 0.227661,0.80269 0.103589,0.28098 0.22646,0.85248 0.273048,1.27 0.133355,1.19513 -0.438112,2.03117 -1.259563,1.8427 z m -49.7043313,-0.27028 c -0.7865757,-0.7328 -0.9051697,-3.06707 -0.209748,-4.12842 0.468932,-0.71568 1.435485,-0.69723 1.782487,0.034 0.281171,0.59253 0.107315,0.79273 -0.452821,0.52145 -0.548907,-0.26584 -0.814348,-0.16252 -1.076608,0.41907 -0.171849,0.38109 -0.204619,0.67169 -0.142629,1.26478 0.09607,0.91914 0.247592,1.23854 0.662374,1.39624 0.429906,0.16345 0.442638,0.75906 0.01622,0.75906 -0.161454,0 -0.42213,-0.11979 -0.57928,-0.2662 z m 27.0955433,-0.88131 c -0.126811,-0.20519 -0.59815,-3.51205 -0.602318,-4.22579 -0.0011,-0.19625 0.05919,-0.41808 0.134075,-0.49297 0.219954,-0.21995 0.493897,0.61779 0.593035,1.81356 0.09488,1.14445 0.248994,1.91598 0.471672,2.36139 0.07622,0.15245 0.1042,0.36677 0.06219,0.47625 -0.08579,0.22356 -0.533834,0.26951 -0.65865,0.0676 z m -47.338812,-3.88193 c -0.134863,-0.13486 -0.113819,-0.868 0.03625,-1.26269 0.178745,-0.47014 1.55666,-1.8123 2.474358,-2.41016 0.4191,-0.27304 0.790575,-0.52698 0.8255,-0.56432 0.08346,-0.0892 0.528007,-0.33726 1.184066,-0.66063 1.480062,-0.72951 2.71781,-1.20194 3.578433,-1.36583 0.34925,-0.0665 0.9779,-0.21119 1.397,-0.32151 1.256767,-0.33083 3.700214,-0.60121 5.550878,-0.61425 1.525628,-0.0107 1.772949,0.0168 2.00025,0.22247 0.512492,0.4638 0.344392,0.51247 -1.804403,0.52242 -2.986165,0.0138 -5.478153,0.39524 -8.580466,1.31329 -0.743141,0.21991 -2.71995,1.29315 -3.924592,2.13072 -1.456336,1.01257 -2.128032,1.75799 -2.531548,2.80941 -0.06205,0.16169 -0.154628,0.25218 -0.205721,0.20108 z"
       id="path986"
       inkscape:connector-curvature="0" />
  </g>
</svg>
